<?xml version="1.0" encoding="UTF-8"?>
<svg width="27px" height="43px" viewBox="0 0 27 43" version="1.1" xmlns="http://www.w3.org/2000/svg" xmlns:xlink="http://www.w3.org/1999/xlink">
    <!-- Generator: Sketch 51.3 (57544) - http://www.bohemiancoding.com/sketch -->
    <title>Group 61</title>
    <desc>Created with Sketch.</desc>
    <defs></defs>
    <g id="Final" stroke="none" stroke-width="1" fill="none" fill-rule="evenodd">
        <g id="Homepage" transform="translate(-887.000000, -845.000000)" fill-rule="nonzero">
            <g id="About-Us" transform="translate(-64.000000, 812.000000)">
                <g id="Basic-Info" transform="translate(479.000000, 0.000000)">
                    <g id="Group-28" transform="translate(444.000000, 14.000000)">
                        <g id="Group-7">
                            <g id="Group-61" transform="translate(28.000000, 19.000000)">
                                <path d="M7.46363636,5.07079646 L7.46363636,3.56637168 C7.46363636,1.90473451 8.81502727,0.557522124 10.4818182,0.557522124 L16.5181818,0.557522124 C18.1849727,0.557522124 19.5363636,1.90473451 19.5363636,3.56637168 L19.5363636,5.07079646 L21.8,5.07079646 C24.2998091,5.07079646 26.3272727,7.09199115 26.3272727,9.5840708 L26.3272727,38.1681416 C26.3272727,40.6602212 24.2998091,42.6814159 21.8,42.6814159 L5.2,42.6814159 C2.70019091,42.6814159 0.672727273,40.6602212 0.672727273,38.1681416 L0.672727273,9.5840708 C0.672727273,7.09199115 2.70019091,5.07079646 5.2,5.07079646 L7.46363636,5.07079646 Z" id="Combined-Shape" fill="#E4A705"></path>
                                <path d="M8.21818182,11.840708 L19.9136364,11.840708 C20.4523818,11.840708 20.8168273,12.3868142 20.6100818,12.8825221 L17.2727273,20.8672566 L19.6555818,20.8672566 C19.9415545,20.8672566 20.1234,21.1726549 19.9868273,21.4231416 L11.5902455,36.7690265 C11.4966818,36.9390265 11.2363636,36.8728319 11.2363636,36.6787611 L11.2363636,25.380531 L8.21818182,25.380531 C7.80167273,25.380531 7.46363636,25.044292 7.46363636,24.6283186 L7.46363636,12.5929204 C7.46363636,12.1776991 7.80167273,11.840708 8.21818182,11.840708 Z" id="Stroke-5" fill="#FFE8AF"></path>
                            </g>
                        </g>
                    </g>
                </g>
            </g>
        </g>
    </g>
</svg>