<?xml version="1.0" encoding="UTF-8"?>
<svg width="1118px" height="328px" viewBox="0 0 1118 328" version="1.1" xmlns="http://www.w3.org/2000/svg" xmlns:xlink="http://www.w3.org/1999/xlink">
    <!-- Generator: Sketch 51.3 (57544) - http://www.bohemiancoding.com/sketch -->
    <title>Illustration</title>
    <desc>Created with Sketch.</desc>
    <defs>
        <linearGradient x1="88.399489%" y1="91.5392328%" x2="7.01920461%" y2="0%" id="linearGradient-1">
            <stop stop-color="#000000" stop-opacity="0" offset="0%"></stop>
            <stop stop-color="#000000" stop-opacity="0.194265172" offset="100%"></stop>
        </linearGradient>
        <linearGradient x1="50%" y1="0%" x2="50%" y2="100%" id="linearGradient-2">
            <stop stop-color="#000000" stop-opacity="0.193302763" offset="0%"></stop>
            <stop stop-color="#000000" stop-opacity="0.0760303442" offset="99.6635658%"></stop>
        </linearGradient>
        <polygon id="path-3" points="0 17 41 69 114 40 77 0"></polygon>
        <linearGradient x1="50%" y1="0%" x2="50%" y2="100%" id="linearGradient-5">
            <stop stop-color="#FFFFFF" stop-opacity="0.188292572" offset="0%"></stop>
            <stop stop-color="#FFFFFF" stop-opacity="0.0439028533" offset="100%"></stop>
        </linearGradient>
        <polygon id="path-6" points="2 18 42 69 112 40 75 0"></polygon>
        <polyline id="path-8" points="3 132.086643 3 56.7345972 38.1650794 1.66350711 166.219048 1.99526066 205.230577 58.0616114 205.230577 140.668246"></polyline>
        <polyline id="path-10" points="3 132.086643 3 56.7345972 38.1650794 1.66350711 166.219048 1.99526066 205.230577 58.0616114 205.230577 140.668246"></polyline>
        <linearGradient x1="3.28154914%" y1="0%" x2="58.6673936%" y2="103.204518%" id="linearGradient-12">
            <stop stop-color="#0EA671" offset="0%"></stop>
            <stop stop-color="#019671" offset="100%"></stop>
        </linearGradient>
        <linearGradient x1="1.43113284%" y1="-2.38099147%" x2="83.800848%" y2="66.4788504%" id="linearGradient-13">
            <stop stop-color="#07B176" offset="0%"></stop>
            <stop stop-color="#039970" stop-opacity="0" offset="100%"></stop>
        </linearGradient>
        <ellipse id="path-14" cx="7.96190476" cy="10.2843602" rx="7.96190476" ry="10.2843602"></ellipse>
        <ellipse id="path-16" cx="7.42631478" cy="10.2605216" rx="7.2984127" ry="9.53344496"></ellipse>
        <polygon id="path-18" points="25.8333333 0 25.8333333 28.5857143 0 27.3428571 0 1.24285714"></polygon>
        <polygon id="path-20" points="24.1666667 0 24.1666667 24.8571429 0 23.6142857 0 1.24285714"></polygon>
    </defs>
    <g id="Final" stroke="none" stroke-width="1" fill="none" fill-rule="evenodd">
        <g id="Homepage-Copy-2" transform="translate(-415.000000, -373.000000)">
            <g id="Illustration" transform="translate(415.000000, 303.000000)">
                <g id="Electric" transform="translate(105.000000, 70.000000)">
                    <path d="M22.5,274 C151.607071,279.483871 238.773737,232.483871 284,133 C418.679394,175.241935 537.110303,104.209677 586.5,28 C622.617576,80.2580645 736.467879,183.032258 800,176.5" id="Path-31-Copy" stroke="#006D52" stroke-width="2" fill-rule="nonzero"></path>
                    <g id="Group-21" transform="translate(284.000000, 105.000000)"></g>
                    <g id="Group-26" transform="translate(281.000000, 105.000000)" fill-rule="nonzero">
                        <path d="M23.5,192 C29.5,197.5 47.5,206.5 56.5,217.5 C62.5,224.833333 74.3333333,232.666667 92,241 L95.5,236.5 C80.1666667,228.833333 69.6666667,222 64,216 C55.5,207 31.5,191 30,190 C29,189.333333 26.8333333,187 23.5,183 L16,183 C17,185.333333 19.5,188.333333 23.5,192 Z" id="Path-48" fill="url(#linearGradient-1)" opacity="0.6"></path>
                        <path d="M23.6824324,182 C23.6824324,184.209139 21.8915714,184.5 19.6824324,184.5 C17.4732934,184.5 15.6824324,184.209139 15.6824324,182 L15.6824324,4 C15.6824324,1.790861 17.4732934,0 19.6824324,0 C21.8915714,0 23.6824324,1.790861 23.6824324,4 L23.6824324,182 Z" id="Path-28-Copy" fill="#008866"></path>
                        <path d="M15.5,30.5 C18.8153153,32.9542484 21.481982,33.4542484 23.5,32 C23.5,27.9281046 23.5,25.4297386 23.5,24.504902 L15.5,23.5 L15.5,30.5 Z" id="Path-30" fill="url(#linearGradient-2)"></path>
                        <g id="Group-25" transform="translate(32.000000, 31.000000)" fill="#00624A">
                            <ellipse id="Oval-15" cx="3.5" cy="2" rx="3.5" ry="2"></ellipse>
                            <ellipse id="Oval-15-Copy" cx="3.5" cy="4" rx="3.5" ry="2"></ellipse>
                            <ellipse id="Oval-15-Copy-2" cx="3.5" cy="6" rx="3.5" ry="2"></ellipse>
                            <ellipse id="Oval-15-Copy-3" cx="3.5" cy="8" rx="3.5" ry="2"></ellipse>
                        </g>
                        <g id="Group-25-Copy" transform="translate(0.000000, 19.000000)" fill="#00624A">
                            <ellipse id="Oval-15" cx="3.5" cy="2" rx="3.5" ry="2"></ellipse>
                            <ellipse id="Oval-15-Copy" cx="3.5" cy="4" rx="3.5" ry="2"></ellipse>
                            <ellipse id="Oval-15-Copy-2" cx="3.5" cy="6" rx="3.5" ry="2"></ellipse>
                            <ellipse id="Oval-15-Copy-3" cx="3.5" cy="8" rx="3.5" ry="2"></ellipse>
                        </g>
                        <path d="M3.43243243,18.3970588 L35,29.7401961" id="Path-29" stroke="#008866" stroke-width="6" stroke-linecap="round"></path>
                    </g>
                    <g id="Group-26-Copy" transform="translate(583.000000, 0.000000)" fill-rule="nonzero">
                        <path d="M29.6513039,181.299906 C35.6513039,186.799906 53.6513039,195.799906 62.6513039,206.799906 C68.6513039,214.133239 80.4846372,221.966573 98.1513039,230.299906 L101.651304,225.799906 C86.3179706,218.133239 75.8179706,211.299906 70.1513039,205.299906 C61.6513039,196.299906 37.6513039,180.299906 36.1513039,179.299906 C35.1513039,178.633239 32.9846372,176.299906 29.6513039,172.299906 L22.1513039,172.299906 C23.1513039,174.633239 25.6513039,177.633239 29.6513039,181.299906 Z" id="Path-48" fill="url(#linearGradient-1)" opacity="0.6" transform="translate(61.901304, 201.299906) rotate(-15.000000) translate(-61.901304, -201.299906) "></path>
                        <path d="M23.6824324,182 C23.6824324,184.209139 21.8915714,184.5 19.6824324,184.5 C17.4732934,184.5 15.6824324,184.209139 15.6824324,182 L15.6824324,4 C15.6824324,1.790861 17.4732934,0 19.6824324,0 C21.8915714,0 23.6824324,1.790861 23.6824324,4 L23.6824324,182 Z" id="Path-28-Copy" fill="#008866"></path>
                        <path d="M15.5,30.5 C18.8153153,32.9542484 21.481982,33.4542484 23.5,32 C23.5,27.9281046 23.5,25.4297386 23.5,24.504902 L15.5,23.5 L15.5,30.5 Z" id="Path-30" fill="url(#linearGradient-2)"></path>
                        <g id="Group-25" transform="translate(32.000000, 31.000000)" fill="#00624A">
                            <ellipse id="Oval-15" cx="3.5" cy="2" rx="3.5" ry="2"></ellipse>
                            <ellipse id="Oval-15-Copy" cx="3.5" cy="4" rx="3.5" ry="2"></ellipse>
                            <ellipse id="Oval-15-Copy-2" cx="3.5" cy="6" rx="3.5" ry="2"></ellipse>
                            <ellipse id="Oval-15-Copy-3" cx="3.5" cy="8" rx="3.5" ry="2"></ellipse>
                        </g>
                        <g id="Group-25-Copy" transform="translate(0.000000, 19.000000)" fill="#00624A">
                            <ellipse id="Oval-15" cx="3.5" cy="2" rx="3.5" ry="2"></ellipse>
                            <ellipse id="Oval-15-Copy" cx="3.5" cy="4" rx="3.5" ry="2"></ellipse>
                            <ellipse id="Oval-15-Copy-2" cx="3.5" cy="6" rx="3.5" ry="2"></ellipse>
                            <ellipse id="Oval-15-Copy-3" cx="3.5" cy="8" rx="3.5" ry="2"></ellipse>
                        </g>
                        <path d="M3.43243243,18.3970588 L35,29.7401961" id="Path-29" stroke="#008866" stroke-width="6" stroke-linecap="round"></path>
                    </g>
                    <path d="M0.5,273 C160.665163,281.292609 265.998497,238.959276 316.5,146 C447.107336,186.832579 585.848166,90.8891403 618.5,40.5 C654.634696,92.6266968 742.937763,184.015837 806.5,177.5" id="Path-31" stroke="#006D52" stroke-width="2" stroke-linecap="round" stroke-linejoin="round" fill-rule="nonzero"></path>
                </g>
                <g id="Solar" transform="translate(0.000000, 293.000000)">
                    <path d="M19.9699925,43 C23.9855716,43 20.4471797,48.3354171 23.3919377,49.6692713 C26.3366958,51.0031256 27.6752222,48.3354171 30.0845697,49.6692713 C32.4939172,51.0031256 30.6199802,54.2043759 32.2262119,56.3385427 C33.8324435,58.4727095 37.3126121,55.0046884 38.6511385,59.0062512 C39.9896649,63.007814 37.0449069,64.0748974 37.0449069,67.0093768 C37.0449069,68.4372239 30.9610322,71.3382591 22.4077852,71.8886541 C13.3825895,72.4694187 1.85244405,70.6358514 1.44010505,69.6770854 C0.636989216,67.8096894 2.24322088,67.0093768 2.24322088,64.0748974 C2.24322088,61.1404181 0.101578663,59.2730221 1.44010505,56.3385427 C2.77863143,53.4040633 6.79421058,57.1388552 7.86503169,55.5382301 C8.9358528,53.937605 5.99109475,48.8689588 7.86503169,47.0015628 C9.73896863,45.1341668 13.7545478,50.2028131 15.0930742,48.6021879 C16.4316006,47.0015628 15.9544133,43 19.9699925,43 Z M21.7857061,58.2059387 C22.5249538,58.2059387 23.1242325,57.2504396 23.1242325,56.0717718 C23.1242325,54.893104 22.5249538,53.937605 21.7857061,53.937605 C21.0464584,53.937605 20.4471797,54.893104 20.4471797,56.0717718 C20.4471797,57.2504396 21.0464584,58.2059387 21.7857061,58.2059387 Z M13.4586648,62.4771964 C14.7497848,62.155284 15.5074992,60.7354267 15.1510673,59.3058563 C14.7946353,57.8762859 13.4590306,56.9783516 12.1679106,57.300264 C10.8767906,57.6221764 10.1190762,59.0420337 10.4755081,60.4716041 C10.8319401,61.9011745 12.1675448,62.7991088 13.4586648,62.4771964 Z M29.0601041,62.2459281 C29.3443034,62.3220791 29.7127615,61.8685309 29.8830784,61.2328998 C30.0533952,60.5972687 29.9610752,60.0202553 29.6768759,59.9441043 C29.3926766,59.8679533 29.0242184,60.3215016 28.8539016,60.9571327 C28.6835848,61.5927638 28.7759048,62.1697772 29.0601041,62.2459281 Z" id="Combined-Shape-Copy-3" fill="#038464" fill-rule="nonzero" transform="translate(20.000000, 57.500000) scale(-1, 1) rotate(1.000000) translate(-20.000000, -57.500000) "></path>
                    <path d="M57,27 L20,67" id="Path-44" stroke="#008866" stroke-width="4" stroke-linecap="round" fill-rule="nonzero"></path>
                    <path d="M121,46 L89,75" id="Path-44-Copy" stroke="#008866" stroke-width="4" stroke-linecap="round" fill-rule="nonzero"></path>
                    <polygon id="Path-37" fill="#0B30C2" fill-rule="nonzero" points="1 17 0 21 41 73 42 69"></polygon>
                    <polygon id="Path-38" fill="#0B30C2" fill-rule="nonzero" points="41 73 88 54 83 52 42 69"></polygon>
                    <g id="Path-41" transform="translate(1.000000, 0.000000)">
                        <mask id="mask-4" fill="white">
                            <use xlink:href="#path-3"></use>
                        </mask>
                        <use id="Mask" fill="#4648E8" fill-rule="nonzero" xlink:href="#path-3"></use>
                        <polygon id="Path-43-Copy" fill="url(#linearGradient-5)" fill-rule="nonzero" mask="url(#mask-4)" points="64.5 -10 34 59 40 61 70 -8"></polygon>
                        <polygon id="Path-43-Copy-2" fill="url(#linearGradient-5)" fill-rule="nonzero" mask="url(#mask-4)" points="32 3 14 59 22 68 53 -1"></polygon>
                        <path d="M86,8 L7,31" stroke="#1E54D4" fill-rule="nonzero" mask="url(#mask-4)"></path>
                        <path d="M95.5,18.5 L18,44" id="Path-41-Copy" stroke="#1E54D4" fill-rule="nonzero" mask="url(#mask-4)"></path>
                        <path d="M104.5,27.5 L27.5,57.5" id="Path-41-Copy-2" stroke="#1E54D4" fill-rule="nonzero" mask="url(#mask-4)"></path>
                        <path d="M17,13 L63,64" id="Path-35" stroke="#1E54D4" fill-rule="nonzero" mask="url(#mask-4)"></path>
                        <path d="M37,8 L83,59" id="Path-35-Copy-2" stroke="#1E54D4" fill-rule="nonzero" mask="url(#mask-4)"></path>
                        <path d="M56,2 L102,53" id="Path-35-Copy-3" stroke="#1E54D4" fill-rule="nonzero" mask="url(#mask-4)"></path>
                    </g>
                    <polygon id="Path-42" fill-opacity="0.149682971" fill="#000000" fill-rule="nonzero" points="60 38 65 60 79 55 63 34"></polygon>
                    <path d="M52.3283823,52 C59.7670793,52 58.4015073,59.8795714 63.8565517,62.346024 C69.3115961,64.8124766 71.8267513,61.4509812 76.2899694,63.9174338 C80.7531876,66.3838864 77.2462062,70.7319628 80.221685,74.678287 C83.1971637,78.6246111 88.7863957,74.3942266 91.2659614,81.7935844 C93.745527,89.1929422 89.1481213,88.983712 89.1481213,94.4099077 C89.1481213,96.9788367 75.9372279,102.737902 60.5617094,103.782428 C43.460436,104.944191 23.9750727,101.161074 23.1916752,99.3428129 C21.7039358,95.8897793 29.3651947,98.1440944 29.3651947,92.7178987 C29.3651947,87.291703 22.1998489,85.2335411 24.6794146,79.8073454 C27.1589802,74.3811497 33.1099378,76.1581585 35.0935903,73.1984154 C37.0772428,70.2386723 31.6221984,67.3704674 35.0935903,63.9174338 C38.5649822,60.4644001 46.0036791,63.332605 48.4832447,60.3728619 C50.9628104,57.4131188 44.8896854,52 52.3283823,52 Z M59.6805759,79.8073454 C61.0500022,79.8073454 63.3606386,76.3644911 63.3606386,74.1849965 C63.3606386,72.0055018 57.6914065,66.8967922 56.3219802,66.8967922 C54.9525539,66.8967922 58.4015073,72.0055018 58.4015073,74.1849965 C58.4015073,76.3644911 58.3111496,79.8073454 59.6805759,79.8073454 Z M42.4582125,90.0018538 C44.8499598,89.4055242 46.2545606,86.7791697 45.5954762,84.1357268 C44.9363919,81.4922838 42.4632042,79.8327706 40.071457,80.4291001 C37.6797097,81.0254297 36.2751089,83.6517842 36.9341932,86.2952272 C37.5932776,88.9386701 40.0664652,90.5981834 42.4582125,90.0018538 Z M77.3528282,87.5879728 C77.8792959,87.7290394 78.5613882,86.8905819 78.8763239,85.7152256 C79.1912597,84.5398694 79.0197792,83.4726978 78.4933115,83.3316312 C77.9668438,83.1905646 77.2847516,84.0290221 76.9698158,85.2043783 C76.6548801,86.3797346 76.8263606,87.4469062 77.3528282,87.5879728 Z" id="Combined-Shape-Copy" fill="#038464" fill-rule="nonzero"></path>
                    <g id="Path-41-+-Path-41-Copy-+-Path-41-Copy-2-+-Path-35-+-Path-35-Copy-2-+-Path-35-Copy-3-Mask" transform="translate(60.000000, 11.000000)">
                        <polygon id="Path-39" fill="#0B30C2" fill-rule="nonzero" points="2 18 0 22 42 75 42 66.5"></polygon>
                        <polygon id="Path-40" fill="#0B30C2" fill-rule="nonzero" points="42 75 110 45 112 40 42 68"></polygon>
                        <mask id="mask-7" fill="white">
                            <use xlink:href="#path-6"></use>
                        </mask>
                        <use id="Mask" fill="#4648E8" fill-rule="nonzero" xlink:href="#path-6"></use>
                        <path d="M86,8 L7,31" id="Path-41" stroke="#1E54D4" fill-rule="nonzero" mask="url(#mask-7)"></path>
                        <path d="M95.5,18.5 L18,44" id="Path-41-Copy" stroke="#1E54D4" fill-rule="nonzero" mask="url(#mask-7)"></path>
                        <path d="M104.5,27.5 L27.5,57.5" id="Path-41-Copy-2" stroke="#1E54D4" fill-rule="nonzero" mask="url(#mask-7)"></path>
                        <path d="M17,13 L63,64" id="Path-35" stroke="#1E54D4" fill-rule="nonzero" mask="url(#mask-7)"></path>
                        <path d="M37,8 L83,59" id="Path-35-Copy-2" stroke="#1E54D4" fill-rule="nonzero" mask="url(#mask-7)"></path>
                        <path d="M56,2 L102,53" id="Path-35-Copy-3" stroke="#1E54D4" fill-rule="nonzero" mask="url(#mask-7)"></path>
                        <polygon id="Path-43" fill="url(#linearGradient-5)" fill-rule="nonzero" mask="url(#mask-7)" points="48 4 30 60 38 69 69 0"></polygon>
                        <polygon id="Path-43-Copy" fill="url(#linearGradient-5)" fill-rule="nonzero" mask="url(#mask-7)" points="75.5 0 45 69 51 71 81 2"></polygon>
                    </g>
                    <path d="M110.06198,83.3153102 C112.059226,78.3197421 113.057848,72.3250604 119.049584,75.3224013 C125.04132,78.3197421 127.038566,76.3215149 129.035811,73.324174 C131.033056,70.3268332 136.02617,64.3321515 138.023415,67.3294923 C140.02066,70.3268332 147.5,65.9973408 147.5,63 C147.5,60.0026592 155,64.3321515 155,64.3321515 C155,64.3321515 108.064735,88.3108783 110.06198,83.3153102 Z" id="Path-53" fill="#68B56C" fill-rule="nonzero"></path>
                </g>
                <g id="House" transform="translate(819.000000, 0.000000)">
                    <g id="Rectangle-3" transform="translate(87.000000, 124.000000)">
                        <g id="Group-23">
                            <g>
                                <mask id="mask-9" fill="white">
                                    <use xlink:href="#path-8"></use>
                                </mask>
                                <use id="Mask" fill="#0DA671" fill-rule="nonzero" xlink:href="#path-8"></use>
                                <mask id="mask-11" fill="white">
                                    <use xlink:href="#path-10"></use>
                                </mask>
                                <use id="Mask" fill="#0DA671" fill-rule="nonzero" xlink:href="#path-10"></use>
                                <polygon id="Path-15" fill="#01916D" fill-rule="nonzero" mask="url(#mask-11)" points="79.3015873 58.0616114 79.3015873 135.023866 207.105056 142.257485 205.295697 58.0616114"></polygon>
                                <polygon id="Rectangle-3" fill-opacity="0.0589900362" fill="#000000" fill-rule="nonzero" mask="url(#mask-11)" points="79.3015873 58.0616114 205.485624 58.0616114 203.042857 69.6729858 79.3015873 62.7061611 37.5015873 2.32701422 38.1650794 1.66350711"></polygon>
                                <g id="Group-22" transform="translate(0.165079, 0.000000)" fill-rule="nonzero">
                                    <polygon id="Path-14" fill="url(#linearGradient-12)" points="35.8349206 0.5 77.1460317 58.0616114 211.503175 58.0616114 166.053968 1.66350711"></polygon>
                                    <polygon id="Path-19" fill="url(#linearGradient-13)" points="41.9809524 2.99052133 81.7904762 58.3933649 77.4777778 58.3933649 35.8349206 0 131.552381 1.33175355 131.552381 3.98578199"></polygon>
                                    <path d="M2.98472024,56.5 L0.334920635,56.5 L35.8349206,0.5 L37.3349206,2.5 L28.0817088,17.1962776 L2.98472024,56.5 Z" id="Combined-Shape" fill="#008866"></path>
                                </g>
                                <path d="M129.884172,137.646707 C129.884172,120.850089 129.884172,108.414959 129.884172,100.341317 C129.884172,88.230855 140.602658,85.0419162 145.202445,85.0419162 C149.802233,85.0419162 160.940397,89.5078978 160.940397,100.760479 C160.940397,108.2622 160.940397,120.976771 160.940397,138.904192 L129.884172,137.646707 Z" id="Path-2" fill="#008866" fill-rule="nonzero"></path>
                                <path d="M127.2249,137.227545 C127.2249,121.12953 127.2249,109.043701 127.2249,100.97006 C127.2249,88.8595975 137.943385,85.6706587 142.543173,85.6706587 C147.14296,85.6706587 158.281124,90.1366403 158.281124,101.389222 C158.281124,108.890942 158.281124,121.395932 158.281124,138.904192 L127.2249,137.227545 Z" id="Path-2" fill="#FFC42F" fill-rule="nonzero" opacity="0"></path>
                            </g>
                            <g id="Oval" transform="translate(30.203175, 28.553424)">
                                <mask id="mask-15" fill="white">
                                    <use xlink:href="#path-14"></use>
                                </mask>
                                <use id="Mask" fill="#00795B" fill-rule="nonzero" xlink:href="#path-14"></use>
                                <ellipse fill="#FFC42F" fill-rule="nonzero" mask="url(#mask-15)" cx="10.4400076" cy="10.3717683" rx="7.2984127" ry="9.53344496"></ellipse>
                                <g id="Path-34" mask="url(#mask-15)">
                                    <g transform="translate(3.013693, 0.111247)">
                                        <mask id="mask-17" fill="white">
                                            <use xlink:href="#path-16"></use>
                                        </mask>
                                        <g id="Mask" stroke="none" fill="none" fill-rule="nonzero"></g>
                                        <path d="M13.1512405,5.02994012 C9.37413208,0.838323353 3.07895136,4.61077844 3.07895136,10.8982036 C3.07895136,16.9552749 6.82792644,19.6012741 13.1512405,17.1856287 C13.3917197,17.0937604 12.0592809,17.2931272 12.3118831,17.1856287 C16.9083408,15.2295409 14.2410489,18.8622754 4.31000749,28.0838323 L-4.05558679,3.77245509 L11.4725257,-2.09580838 C13.2751475,1.59660388 13.8347192,3.97185338 13.1512405,5.02994012 Z" id="Path-34" stroke="none" fill="#F6BA21" fill-rule="nonzero" mask="url(#mask-17)"></path>
                                    </g>
                                </g>
                            </g>
                        </g>
                    </g>
                    <g id="Group-13" transform="translate(96.000000, 200.000000)">
                        <g id="Path-3" transform="translate(34.166667, 0.000000)">
                            <mask id="mask-19" fill="white">
                                <use xlink:href="#path-18"></use>
                            </mask>
                            <use id="Mask" fill="#FFC42F" fill-rule="nonzero" xlink:href="#path-18"></use>
                            <path d="M-3.75,18.6428571 C-3.75,13.947619 -2.36111111,10.7714286 0.416666667,9.11428571 C4.58333333,6.62857143 5.41666667,4.14285714 5.41666667,2.9 C5.41666667,1.65714286 16.6666667,0.414285714 17.9166667,0.414285714 C19.1666667,0.414285714 18.75,5.38571429 16.6666667,9.11428571 C14.5833333,12.8428571 6.25,12.8428571 5.41666667,19.8857143 C4.86111111,24.5809524 2.08333333,27.6190476 -2.91666667,29 L-6.66666667,18.6428571 L-3.75,18.6428571 Z" fill="#F6BA21" fill-rule="nonzero" mask="url(#mask-19)"></path>
                        </g>
                        <polygon id="Path-36" fill="#00795B" fill-rule="nonzero" points="34.1666667 1.24285714 34.1666667 27.3428571 36.6666667 27.3428571 36.6666667 3.31428571 60 1.24285714 60 0"></polygon>
                        <g id="Path-3" transform="translate(0.000000, 1.657143)">
                            <mask id="mask-21" fill="white">
                                <use xlink:href="#path-20"></use>
                            </mask>
                            <use id="Mask" fill="#FFC42F" fill-rule="nonzero" xlink:href="#path-20"></use>
                            <path d="M0.416666667,16.9857143 C0.416666667,12.2904762 1.80555556,9.11428571 4.58333333,7.45714286 C8.75,4.97142857 9.58333333,2.48571429 9.58333333,1.24285714 C9.58333333,-1.77635684e-15 20.8333333,-1.24285714 22.0833333,-1.24285714 C23.3333333,-1.24285714 22.9166667,3.72857143 20.8333333,7.45714286 C18.75,11.1857143 10.4166667,11.1857143 9.58333333,18.2285714 C9.02777778,22.9238095 6.25,25.9619048 1.25,27.3428571 L-2.5,16.9857143 L0.416666667,16.9857143 Z" fill="#F6BA21" fill-rule="nonzero" mask="url(#mask-21)"></path>
                        </g>
                        <polygon id="Path-36-Copy" fill="#00795B" fill-rule="nonzero" points="0 2.9 0 25.2714286 2.5 25.2714286 2.5 4.97142857 24.1666667 2.9 24.1666667 1.65714286"></polygon>
                    </g>
                    <g id="Bushes" transform="translate(43.000000, 215.000000)" fill="#038464" fill-rule="nonzero">
                        <path d="M218.220159,21.3293873 C222.235738,21.3293873 218.697346,26.6648044 221.642104,27.9986586 C224.586862,29.3325129 225.925388,26.6648044 228.334736,27.9986586 C230.744083,29.3325129 228.870146,32.5337632 230.476378,34.66793 C232.08261,36.8020968 235.562778,33.3340757 236.901305,37.3356385 C238.239831,41.3372013 235.295073,42.4042847 235.295073,45.3387641 C235.295073,46.7666112 229.211198,49.6676464 220.657951,50.2180414 C211.632756,50.798806 200.10261,48.9652387 199.690271,48.0064727 C198.887155,46.1390767 200.493387,45.3387641 200.493387,42.4042847 C200.493387,39.4698054 198.351745,37.6024094 199.690271,34.66793 C201.028798,31.7334506 205.044377,35.4682426 206.115198,33.8676174 C207.186019,32.2669923 204.241261,27.1983461 206.115198,25.3309501 C207.989135,23.4635541 212.004714,28.5322004 213.34324,26.9315752 C214.681767,25.3309501 214.204579,21.3293873 218.220159,21.3293873 Z M220.035872,36.535326 C220.77512,36.535326 221.374399,35.5798269 221.374399,34.4011591 C221.374399,33.2224913 220.77512,32.2669923 220.035872,32.2669923 C219.296624,32.2669923 218.697346,33.2224913 218.697346,34.4011591 C218.697346,35.5798269 219.296624,36.535326 220.035872,36.535326 Z M211.708831,40.8065837 C212.999951,40.4846713 213.757665,39.064814 213.401233,37.6352436 C213.044801,36.2056732 211.709197,35.3077389 210.418077,35.6296513 C209.126957,35.9515637 208.369242,37.371421 208.725674,38.8009914 C209.082106,40.2305618 210.417711,41.1284961 211.708831,40.8065837 Z M227.31027,40.5753154 C227.59447,40.6514664 227.962928,40.1979182 228.133244,39.5622871 C228.303561,38.926656 228.211241,38.3496426 227.927042,38.2734916 C227.642843,38.1973406 227.274385,38.6508889 227.104068,39.28652 C226.933751,39.9221511 227.026071,40.4991645 227.31027,40.5753154 Z" id="Combined-Shape-Copy-2" transform="translate(218.250166, 35.829387) scale(-1, 1) rotate(1.000000) translate(-218.250166, -35.829387) "></path>
                        <path d="M32.9478816,0 C39.9223086,0 33.7766805,9.32008488 38.8912603,11.6501061 C44.0058401,13.9801273 46.330649,9.32008488 50.5153052,11.6501061 C54.6999614,13.9801273 51.4452288,19.5721782 54.2349996,23.3002122 C57.0247704,27.0282461 63.0692737,20.970191 65.3940827,27.9602546 C67.7188917,34.9503183 62.6043119,36.8143353 62.6043119,41.9403819 C62.6043119,44.3672111 50.2179475,49.8077148 35.8020583,50.7944626 C19.7681235,51.8919633 1.49889645,48.3181083 0.764392976,46.6004244 C-0.630492414,43.3383947 2.15927837,41.9403819 2.15927837,36.8143353 C2.15927837,31.6882886 -1.56041601,28.4262589 0.764392976,23.3002122 C3.08920196,18.1741655 10.0636289,24.6982249 11.9234761,21.9021995 C13.7833233,19.106174 8.66874352,10.2520934 11.9234761,6.99006366 C15.1782087,3.72803395 22.1526356,12.5821146 24.4774446,9.78608912 C26.8022536,6.99006366 25.9734547,-9.75021941e-15 32.9478816,0 Z M36.1014895,26.5622419 C37.3854461,26.5622419 38.4262985,24.8931442 38.4262985,22.8342079 C38.4262985,20.7752716 37.3854461,19.106174 36.1014895,19.106174 C34.817533,19.106174 33.7766805,20.7752716 33.7766805,22.8342079 C33.7766805,24.8931442 34.817533,26.5622419 36.1014895,26.5622419 Z M21.6451818,34.0234177 C23.8876534,33.4643067 25.2007967,30.9866598 24.5781695,28.4894385 C23.9555423,25.9922171 21.6329208,24.4210682 19.3904492,24.9801791 C17.1479776,25.5392901 15.8348343,28.016937 16.4574615,30.5141584 C17.0800887,33.0113797 19.4027102,34.5825286 21.6451818,34.0234177 Z M48.7328891,33.6194305 C49.2264984,33.7516928 49.8678315,32.9588027 50.1653467,31.8484611 C50.4628618,30.7381194 50.3038961,29.73079 49.8102867,29.5985278 C49.3166774,29.4662655 48.6753442,30.2591556 48.3778291,31.3694972 C48.0803139,32.4798388 48.2392797,33.4871683 48.7328891,33.6194305 Z" id="Combined-Shape"></path>
                    </g>
                </g>
            </g>
        </g>
    </g>
</svg>