<?xml version="1.0" encoding="UTF-8"?>
<svg width="43px" height="45px" viewBox="0 0 43 45" version="1.1" xmlns="http://www.w3.org/2000/svg" xmlns:xlink="http://www.w3.org/1999/xlink">
    <!-- Generator: Sketch 51.3 (57544) - http://www.bohemiancoding.com/sketch -->
    <title>Group 62</title>
    <desc>Created with Sketch.</desc>
    <defs></defs>
    <g id="Final" stroke="none" stroke-width="1" fill="none" fill-rule="evenodd">
        <g id="Homepage" transform="translate(-1307.000000, -844.000000)" fill-rule="nonzero">
            <g id="About-Us" transform="translate(-64.000000, 812.000000)">
                <g id="Basic-Info" transform="translate(479.000000, 0.000000)">
                    <g id="Group-15-Copy-4" transform="translate(861.000000, 5.000000)">
                        <g id="Group-53">
                            <g id="Group-62" transform="translate(31.000000, 27.000000)">
                                <path d="M31.5088428,30.75 C30.0644792,32.3560119 28.0491282,33.4427778 25.7803622,33.6942524 C24.5548388,37.2189194 21.1903722,39.75 17.2318841,39.75 C12.2373089,39.75 8.1884058,35.7205627 8.1884058,30.75 C8.1884058,30.7388132 8.18842631,30.7276311 8.18846729,30.7164539 C3.96026095,30.3381663 0.652173913,26.807186 0.652173913,22.5 C0.652173913,17.94 4.36,14.25 8.94202899,14.25 C9.27362319,14.25 9.59014493,14.2725 9.9142029,14.31 C9.77101449,13.56 9.69565217,12.7875 9.69565217,12 C9.69565217,5.37 15.0915942,0 21.7536232,0 C27.7147826,0 32.6585507,4.2975 33.6382609,9.9525 C38.4614493,10.92 42.1014493,15.165 42.1014493,20.25 C42.1014493,26.0475 37.3762319,30.75 31.5507246,30.75 L31.5088428,30.75 Z" id="Combined-Shape" fill="#E4A705"></path>
                                <path d="M28.5362319,33.75 L32.3043478,33.75 L21.3768116,44.25 L10.4492754,33.75 L14.9710145,33.75 L14.9710145,19.5 L28.5362319,19.5 L28.5362319,33.75 Z" id="Combined-Shape" fill="#FFE8AF"></path>
                            </g>
                        </g>
                    </g>
                </g>
            </g>
        </g>
    </g>
</svg>