<?xml version="1.0" encoding="UTF-8"?>
<svg width="39px" height="43px" viewBox="0 0 39 43" version="1.1" xmlns="http://www.w3.org/2000/svg" xmlns:xlink="http://www.w3.org/1999/xlink">
    <!-- Generator: Sketch 51.3 (57544) - http://www.bohemiancoding.com/sketch -->
    <title>Group 10</title>
    <desc>Created with Sketch.</desc>
    <defs></defs>
    <g id="Final" stroke="none" stroke-width="1" fill="none" fill-rule="evenodd">
        <g id="Homepage" transform="translate(-451.000000, -844.000000)" fill-rule="nonzero">
            <g id="About-Us" transform="translate(-64.000000, 812.000000)">
                <g id="Basic-Info" transform="translate(479.000000, 0.000000)">
                    <g id="Group-15">
                        <g id="Group-52">
                            <g id="Group-27" transform="translate(36.636364, 32.557522)">
                                <g id="Group-10">
                                    <path d="M27.813304,14.539823 L24.3818182,14.539823 C23.5533911,14.539823 22.8818182,15.2113959 22.8818182,16.039823 L22.8818182,28.0824793 C21.7204483,28.5652601 20.4460151,28.8318584 19.1090909,28.8318584 C13.6914545,28.8318584 9.3,24.4539823 9.3,19.0530973 C9.3,13.6522124 13.6914545,9.27433628 19.1090909,9.27433628 C22.8936719,9.27433628 26.1774806,11.4107205 27.813304,14.539823 Z M19.8590909,4.00884956 C19.8590909,4.42306312 19.5233045,4.75884956 19.1090909,4.75884956 C18.6948773,4.75884956 18.3590909,4.42306312 18.3590909,4.00884956 L18.3590909,1 C18.3590909,0.585786438 18.6948773,0.25 19.1090909,0.25 C19.5233045,0.25 19.8590909,0.585786438 19.8590909,1 L19.8590909,4.00884956 Z M14.0265411,4.86631034 C14.185479,5.24881735 14.0042405,5.68774519 13.6217335,5.84668312 C13.2392265,6.00562105 12.8002986,5.8243825 12.6413607,5.4418755 L11.4861516,2.66169851 C11.3272137,2.2791915 11.5084522,1.84026366 11.8909592,1.68132573 C12.2734662,1.5223878 12.7123941,1.70362635 12.871332,2.08613335 L14.0265411,4.86631034 Z M8.96774192,7.8840839 C9.26108831,8.17652325 9.2618236,8.65139642 8.96938425,8.9447428 C8.6769449,9.23808918 8.20207173,9.23882448 7.90872535,8.94638513 L5.77411626,6.81837628 C5.48076987,6.52593692 5.48003458,6.05106376 5.77247393,5.75771738 C6.06491328,5.46437099 6.53978645,5.4636357 6.83313283,5.75607505 L8.96774192,7.8840839 Z M5.4532425,12.6025954 C5.83609664,12.7606953 6.01829593,13.1992252 5.86019601,13.5820794 C5.70209609,13.9649335 5.26356618,14.1471328 4.88071205,13.9890329 L2.09191205,12.8373957 C1.70905791,12.6792958 1.52685861,12.2407659 1.68495853,11.8579118 C1.84305845,11.4750576 2.28158836,11.2928583 2.6644425,11.4509583 L5.4532425,12.6025954 Z M4.01818182,18.3030973 C4.43239538,18.3030973 4.76818182,18.6388838 4.76818182,19.0530973 C4.76818182,19.4673109 4.43239538,19.8030973 4.01818182,19.8030973 L1,19.8030973 C0.585786438,19.8030973 0.25,19.4673109 0.25,19.0530973 C0.25,18.6388838 0.585786438,18.3030973 1,18.3030973 L4.01818182,18.3030973 Z M4.88071205,24.1167857 C5.26356618,23.9586858 5.70209609,24.1408851 5.86019601,24.5237392 C6.01829593,24.9065933 5.83609664,25.3451232 5.4532425,25.5032232 L2.6644425,26.6548603 C2.28158836,26.8129603 1.84305845,26.630761 1.68495853,26.2479068 C1.52685861,25.8650527 1.70905791,25.4265228 2.09191205,25.2684229 L4.88071205,24.1167857 Z M7.90881925,29.1600921 C8.20221732,28.8677046 8.67709035,28.8685238 8.96947784,29.1619219 C9.26186533,29.45532 9.2610461,29.930193 8.96764802,30.2225805 L6.83303893,32.3498371 C6.53964086,32.6422246 6.06476783,32.6414054 5.77238034,32.3480073 C5.47999285,32.0546092 5.48081208,31.5797362 5.77421016,31.2873487 L7.90881925,29.1600921 Z M12.6413883,32.664328 C12.8003629,32.2818362 13.2393081,32.1006398 13.6217999,32.2596144 C14.0042917,32.418589 14.1854881,32.8575342 14.0265135,33.240026 L12.8713044,36.0194508 C12.7123298,36.4019425 12.2733846,36.583139 11.8908928,36.4241644 C11.5084011,36.2651898 11.3272046,35.8262445 11.4861792,35.4437528 L12.6413883,32.664328 Z M18.3590909,34.0973451 C18.3590909,33.6831316 18.6948773,33.3473451 19.1090909,33.3473451 C19.5233045,33.3473451 19.8590909,33.6831316 19.8590909,34.0973451 L19.8590909,37.1061947 C19.8590909,37.5204083 19.5233045,37.8561947 19.1090909,37.8561947 C18.6948773,37.8561947 18.3590909,37.5204083 18.3590909,37.1061947 L18.3590909,34.0973451 Z M30.3099276,8.94629152 C30.0166329,9.23878272 29.5417597,9.23813137 29.2492685,8.94483668 C28.9567772,8.651542 28.9574286,8.17666871 29.2507233,7.88417751 L31.3845778,5.75616866 C31.6778725,5.46367746 32.1527458,5.46432881 32.445237,5.75762349 C32.7377282,6.05091818 32.7370769,6.52579146 32.4437822,6.81828267 L30.3099276,8.94629152 Z M25.5764438,5.4418755 C25.4175059,5.8243825 24.9785781,6.00562105 24.5960711,5.84668312 C24.2135641,5.68774519 24.0323255,5.24881735 24.1912634,4.86631034 L25.3464725,2.08613335 C25.5054105,1.70362635 25.9443383,1.5223878 26.3268453,1.68132573 C26.7093523,1.84026366 26.8905909,2.2791915 26.7316529,2.66169851 L25.5764438,5.4418755 Z" id="Combined-Shape" fill="#E4A705"></path>
                                    <path d="M25.9,16.7964602 L37.5954545,16.7964602 C38.1342,16.7964602 38.4986455,17.3425664 38.2919,17.8382743 L34.9545455,25.8230088 L37.3374,25.8230088 C37.6233727,25.8230088 37.8052182,26.1284071 37.6686455,26.3788938 L29.2728182,41.7247788 C29.1792545,41.8947788 28.9181818,41.8285841 28.9181818,41.6345133 L28.9181818,30.3362832 L25.9,30.3362832 C25.4827364,30.3362832 25.1454545,30.0000442 25.1454545,29.5840708 L25.1454545,17.5486726 C25.1454545,17.1334513 25.4827364,16.7964602 25.9,16.7964602 Z" id="Stroke-3" fill="#FFE8AF"></path>
                                </g>
                            </g>
                        </g>
                    </g>
                </g>
            </g>
        </g>
    </g>
</svg>