<?xml version="1.0" encoding="UTF-8"?>
<svg width="673px" height="539px" viewBox="0 0 673 539" version="1.1" xmlns="http://www.w3.org/2000/svg" xmlns:xlink="http://www.w3.org/1999/xlink">
    <!-- Generator: Sketch Beta 52 (65972) - http://www.bohemiancoding.com/sketch -->
    <title>Factory</title>
    <desc>Created with Sketch Beta.</desc>
    <defs>
        <linearGradient x1="10.9993162%" y1="10.4035741%" x2="86.5059563%" y2="100%" id="linearGradient-1">
            <stop stop-color="#000000" stop-opacity="0.00931272645" offset="0%"></stop>
            <stop stop-color="#000000" stop-opacity="0.25" offset="34.9850867%"></stop>
            <stop stop-color="#000000" stop-opacity="0.427224864" offset="100%"></stop>
        </linearGradient>
        <path d="M24.814478,87 C21.4621866,74.3333333 17.1193742,67 11.7860409,65 C3.78604088,62 -2.21395912,52 0.786040879,43 C3.78604088,34 16.7860409,40 17.7860409,33 C18.7860409,26 6.78604088,21 7.78604088,7 C8.73380479,-6.26869477 33.7860409,3 41.7860409,7 C49.7860409,11 55,3 62,12 C71.4694111,24.1749571 38.7860409,37 38.7860409,48 C38.7860409,59 50.7860409,55 50.7860409,65 C50.7860409,75 32.2860409,81 32.2860409,88 C32.2860409,92.6666667 29.7955199,92.3333333 24.814478,87 Z" id="path-2"></path>
        <linearGradient x1="50%" y1="38.2577947%" x2="50%" y2="97.0691835%" id="linearGradient-4">
            <stop stop-color="#000000" stop-opacity="0" offset="0%"></stop>
            <stop stop-color="#000000" stop-opacity="0.29894135" offset="100%"></stop>
        </linearGradient>
        <path d="M0.902295059,1.05607163 C0.893352238,0.503808133 1.71238949,0.0521821476 2.73166597,0.0473367561 C3.75094245,0.0424913647 4.58447888,0.486261418 4.5934217,1.03852491 L4.99992746,26.1422693 C5.00887028,26.6945328 4.18983302,27.1461588 3.17055655,27.1510042 C2.15128007,27.1558496 1.31774364,26.7120795 1.30880082,26.159816 L0.902295059,1.05607163 Z" id="path-5"></path>
        <path d="M4.89552491,24.99119 C54.4591922,53.6291517 103.657038,82.57586 152.489062,111.831315 L198.691539,82.6568379 L52.5947039,1.64499002 C50.1758033,0.303690536 47.2356562,0.307017628 44.8197974,1.65378816 L2.9567881,24.99119 L2.14903504,25.8041765 C3.5147257,24.993333 4.43022232,24.7223375 4.89552491,24.99119 Z" id="path-7"></path>
        <path d="M8.24882233,6.13707564 C6.04267126,3.57277233 3.67439309,2.00887796 1.14398782,1.44539252 C-2.65162008,0.600164364 3.68759109,-2.02596119 10.0580607,2.97830631 C14.3050405,6.31448464 13.701961,7.36740775 8.24882233,6.13707564 Z" id="path-9"></path>
        <linearGradient x1="50%" y1="0%" x2="59.3340977%" y2="73.8089058%" id="linearGradient-11">
            <stop stop-color="#86451E" offset="0%"></stop>
            <stop stop-color="#5A290B" offset="100%"></stop>
        </linearGradient>
        <linearGradient x1="3.26075991%" y1="4.64998404%" x2="75.6036405%" y2="96.5061134%" id="linearGradient-12">
            <stop stop-color="#000000" stop-opacity="0" offset="0%"></stop>
            <stop stop-color="#000000" stop-opacity="0.269276495" offset="97.3446532%"></stop>
        </linearGradient>
        <path d="M0,163 C0,180.120827 23.5050506,194 52.5,194 C81.4949494,194 105,180.120827 105,163 C102.407307,131.105275 100.462788,107.184232 99.1664416,91.2368698 C98.5429639,83.566987 81.9501682,80.6612285 81,69.5 C80.7987389,67.1358704 96.1927671,56.8713778 96,54.5 C95.1357419,43.8680897 93.7257001,25.7834093 91.7698747,0.245958634 L12.88779,0.245958634 L0,163 Z" id="path-13"></path>
        <linearGradient x1="50%" y1="7.79834918%" x2="50%" y2="100%" id="linearGradient-15">
            <stop stop-color="#6D6E89" offset="0%"></stop>
            <stop stop-color="#18222D" offset="100%"></stop>
        </linearGradient>
        <polygon id="path-16" points="0.5 45 1.5 4 44.5 0.5 62 17.5 46 45"></polygon>
        <linearGradient x1="15.6290773%" y1="0%" x2="50%" y2="100%" id="linearGradient-18">
            <stop stop-color="#9192A4" offset="0%"></stop>
            <stop stop-color="#737386" offset="100%"></stop>
        </linearGradient>
        <linearGradient x1="50%" y1="0%" x2="50%" y2="100%" id="linearGradient-19">
            <stop stop-color="#9899AB" offset="0%"></stop>
            <stop stop-color="#6E6E81" offset="100%"></stop>
        </linearGradient>
        <linearGradient x1="50%" y1="0%" x2="40.4098809%" y2="100%" id="linearGradient-20">
            <stop stop-color="#9091A4" offset="0%"></stop>
            <stop stop-color="#757589" offset="100%"></stop>
        </linearGradient>
        <linearGradient x1="50%" y1="0%" x2="38.7651205%" y2="100%" id="linearGradient-21">
            <stop stop-color="#9091A4" offset="0%"></stop>
            <stop stop-color="#767689" offset="100%"></stop>
        </linearGradient>
        <linearGradient x1="85.0615028%" y1="57.3998905%" x2="15.3462943%" y2="18.9991419%" id="linearGradient-22">
            <stop stop-color="#9091A4" offset="0%"></stop>
            <stop stop-color="#737387" offset="100%"></stop>
        </linearGradient>
        <linearGradient x1="44.1743169%" y1="9.16954926%" x2="60.6430155%" y2="100%" id="linearGradient-23">
            <stop stop-color="#737387" offset="0%"></stop>
            <stop stop-color="#9091A4" offset="100%"></stop>
        </linearGradient>
        <linearGradient x1="50%" y1="0%" x2="41.0136749%" y2="100%" id="linearGradient-24">
            <stop stop-color="#6E6E81" offset="0%"></stop>
            <stop stop-color="#8A8A9E" offset="100%"></stop>
        </linearGradient>
        <linearGradient x1="50%" y1="0%" x2="50%" y2="97.0217666%" id="linearGradient-25">
            <stop stop-color="#43489B" offset="0%"></stop>
            <stop stop-color="#262629" offset="100%"></stop>
        </linearGradient>
        <polygon id="path-26" points="0 46 25 30.5 25 0 0 14.5"></polygon>
        <polygon id="path-28" points="0 0 11.5 6.5 11.5 73 0 66.5"></polygon>
        <polygon id="path-30" points="0 0 11.5 6.5 11.5 73 0 66.5"></polygon>
        <polygon id="path-32" points="0 0 11.5 6.5 11.5 73 0 66.5"></polygon>
        <polygon id="path-34" points="0 0 11.5 6.5 11.5 73 0 66.5"></polygon>
        <path d="M13,47.5 C13.6666667,46.1666667 14.6666667,45.5 16,45.5 C18,45.5 20.5,46.5 20.5,47 C20.5,47.3333333 24.8333333,42.5 33.5,32.5 L38.5,13 L16,0.5 L2.5,5.5 L0,32.5 L13,47.5 Z" id="path-36"></path>
        <path d="M9.92579119,41.8701299 C8.58487463,36.7705628 6.84774969,33.8181818 4.71441635,33.012987 C1.51441635,31.8051948 -0.885583648,27.7792208 0.314416352,24.1558442 C1.51441635,20.5324675 6.71441635,22.9480519 7.11441635,20.1298701 C7.51441635,17.3116883 2.71441635,15.2987013 3.11441635,9.66233766 C3.51441635,4.02597403 5.51441635,1.63536171e-15 11.1144164,0 C16.7144164,0 13.5144164,8.05194805 16.7144164,9.66233766 C19.9144164,11.2727273 23.5144164,6.44155844 26.3144164,10.0649351 C30.1021808,14.9665412 15.5144164,21.7402597 15.5144164,26.1688312 C15.5144164,30.5974026 20.3144164,28.987013 20.3144164,33.012987 C20.3144164,37.038961 12.9144164,39.4545455 12.9144164,42.2727273 C12.9144164,44.1515152 11.918208,44.017316 9.92579119,41.8701299 Z" id="path-38"></path>
    </defs>
    <g id="Final" stroke="none" stroke-width="1" fill="none" fill-rule="evenodd">
        <g id="Homepage" transform="translate(-1009.000000, -4191.000000)">
            <g id="Group-50" transform="translate(513.000000, 4191.000000)">
                <g id="Factory" transform="translate(496.000000, 0.000000)">
                    <path d="M73.1692184,491.386297 C95.2824494,503.854072 153.012807,505.600732 187.512955,530.359662 C222.013104,555.118592 295.540499,516.3747 326.325318,497.48305 C375.269431,467.447626 343.221476,488.666588 402.631529,448.371073 C449.308201,416.712113 442.036251,387.435844 413.996284,372.87663 C392.890311,361.91776 356.288594,370.295087 344.590103,367.194253 C310.369072,358.123533 308.004349,342.926228 281.991002,356.235382 C231.15263,382.334226 212.617106,369.345167 192.290926,380.5 C182.270664,385.999034 177.410495,412.477185 157.071648,422.800375 C136.749929,433.114872 48.6133939,477.541351 73.1692184,491.386297 Z" id="Mask" fill="#FFC333" fill-rule="nonzero" opacity="0.999776786"></path>
                    <path d="M113.667968,406.102924 L41.682739,363.081797 L47.814772,376.162517 L46.7831542,377.259202 L44.3701306,376.683847 L35.8168086,359.576093 L2.79114211,339.838691 C0.894848085,338.705393 0.27631749,336.249423 1.40961536,334.353129 C1.77003057,333.750064 2.28292556,333.252562 2.89669084,332.910685 L35.2590812,314.884337 C38.9600363,312.822848 43.4737344,312.865521 47.1350526,314.996613 L216.666226,413.673251 L172.117572,436.498508 L186.5,444.5 L331.236407,458.597702 L334.5,456 L341.5,459.5 L235.5,526.5 C177.912284,495.178083 148.849085,479.34475 148.310403,479 C147.771721,478.65525 148.105055,477.761485 149.310403,476.318706 L75.5,429.08089 L113.667968,406.102924 Z" id="Combined-Shape" fill="url(#linearGradient-1)" fill-rule="nonzero"></path>
                    <g id="Plant-Copy" transform="translate(250.000000, 256.000000)">
                        <g id="Group-57" transform="translate(32.000000, 98.000000) scale(-1, 1) translate(-32.000000, -98.000000) ">
                            <path d="M27.814478,114.5 C24.4621866,101.833333 20.1193742,94.5 14.7860409,92.5 C6.78604088,89.5 0.786040879,79.5 3.78604088,70.5 C6.78604088,61.5 19.7860409,67.5 20.7860409,60.5 C21.7860409,53.5 9.78604088,48.5 10.7860409,34.5 C11.7860409,20.5 13.814478,3.60547818e-15 27.814478,0 C41.814478,0 35.7860409,30.5 44.7860409,34.5 C53.7860409,38.5 55.2860409,38.5 58.2860409,42 C67.9888028,53.319889 41.7860409,64.5 41.7860409,75.5 C41.7860409,86.5 53.7860409,82.5 53.7860409,92.5 C53.7860409,102.5 35.2860409,108.5 35.2860409,115.5 C35.2860409,120.166667 32.7955199,119.833333 27.814478,114.5 Z" id="Path-230" fill="#23B893" fill-rule="nonzero"></path>
                            <path d="M27,172.184383 C21.8316166,158.673752 16.726966,152 12,152 C11.4477153,152 11,151.552285 11,151 C11,150.447715 11.4477153,150 12,150 C17.2237638,150 22.150939,155.660855 27,166.869047 L27,154.018275 C26.9998063,154.00694 26.9998054,153.995574 27,153.984177 L27,118 C27,115.559126 29,115.165839 29,118 L29,145.56624 C31.912121,136.86474 37.0821798,130.372718 44.5038611,126.131757 C44.9833785,125.857747 45.5942332,126.024344 45.8682431,126.503861 C46.1422531,126.983379 45.9756564,127.594233 45.4961389,127.868243 C36.4596696,133.03194 30.9655004,141.738873 29,154.0788 L29,171.976652 C29.0003611,171.992124 29.0003593,172.007567 29,172.022971 L29,175.903195 C31.5581394,168.680742 34.8458441,165 39,165 C39.5522847,165 40,165.447715 40,166 C40,166.552285 39.5522847,167 39,167 C34.9934625,167 31.5656583,172.27618 29,183.116393 L29,193.540088 C29,194.092373 28.5522847,194.540088 28,194.540088 C27.4477153,194.540088 27,194.092373 27,193.540088 L27,183.022012 C26.9997003,183.007948 26.9996987,182.993841 27,182.979695 L27,172.184383 Z" id="Combined-Shape" fill="#039773" fill-rule="nonzero"></path>
                            <g id="Rectangle-5" transform="translate(0.000000, 104.000000)">
                                <mask id="mask-3" fill="white">
                                    <use xlink:href="#path-2"></use>
                                </mask>
                                <use id="Mask" fill="#23B893" fill-rule="nonzero" opacity="0" xlink:href="#path-2"></use>
                                <rect fill="url(#linearGradient-4)" fill-rule="nonzero" opacity="0.547935268" mask="url(#mask-3)" x="16" y="69" width="39" height="24"></rect>
                            </g>
                        </g>
                        <path d="M22.1072749,190.458372 C25.3666473,190.819457 29.6642223,191 35,191 C39.7088306,191 44.4176612,191 49.1264918,191 L49.1264918,191 C50.2310613,191 51.1264918,191.895431 51.1264918,193 C51.1264918,193.237092 51.0843349,193.472296 51.0019894,193.694629 L42.7995863,215.841107 C42.3013974,217.186217 41.1211031,218.161594 39.7062182,218.397419 C37.2960005,218.79914 35.7272611,219 35,219 C34.2847872,219 32.7557462,218.80574 30.412877,218.417219 L30.4128776,218.417215 C28.9348016,218.172104 27.7176357,217.121533 27.2591539,215.695146 L19.9830089,193.058215 C19.6450023,192.006639 20.2234647,190.880159 21.2750407,190.542153 C21.5434462,190.45588 21.8270592,190.427328 22.1072749,190.458372 Z" id="Path-224" fill="#7072FD" fill-rule="nonzero"></path>
                    </g>
                    <g id="Tray" transform="translate(34.000000, 317.000000)">
                        <g id="Path-158" transform="translate(9.000000, 33.000000)">
                            <mask id="mask-6" fill="white">
                                <use xlink:href="#path-5"></use>
                            </mask>
                            <use id="Mask" fill="#C2C2CE" fill-rule="nonzero" xlink:href="#path-5"></use>
                            <path d="M0.773964144,8.64047286 C1.08687569,9.84766765 1.4010138,10.5426982 1.71637848,10.7255646 C2.7948306,11.3509124 3.87587835,11.093013 4.95952173,9.95186637 L4.95952173,4.15242423 L-1,3 L0.773964144,8.64047286 Z" fill-opacity="0.373867754" fill="#423939" fill-rule="nonzero" mask="url(#mask-6)"></path>
                        </g>
                        <polyline id="Path-99" fill="#0B30C2" fill-rule="nonzero" points="14.5436815 30.633088 4.6100107 35.4029036 152.49212 123.231501 199.364021 93.2211474"></polyline>
                        <path d="M11.6936086,33.9454313 L118.410478,97.8405773 L151.804454,111.61119 L178.817423,90.3814952 L25.0024545,21.3822909 C9.08772352,22.0507351 2.85164316,23.5141896 6.29421344,25.7726543 C8.78607943,27.4074188 10.7640405,27.4246653 11.6936086,30.8650919 C11.8969016,31.6175 11.8969016,32.6442798 11.6936086,33.9454313 Z" id="Path-155" fill-opacity="0.29370471" fill="#000000" fill-rule="nonzero"></path>
                        <polyline id="Path-100" fill="#273144" fill-rule="nonzero" points="6.23306899 36.174942 19.4890825 30.5181725 10.3776362 22.1747013 3.45347382 24.8980538"></polyline>
                        <mask id="mask-8" fill="white">
                            <use xlink:href="#path-7"></use>
                        </mask>
                        <use id="Mask" fill="#4648E8" fill-rule="nonzero" xlink:href="#path-7"></use>
                        <path d="M14.5,34.5 L67.5,4.5" id="Path-154" stroke="#003C78" fill-rule="nonzero" mask="url(#mask-8)"></path>
                        <path d="M43.5,48.5 L96.5,18.5" id="Path-154-Copy" stroke="#003C78" fill-rule="nonzero" mask="url(#mask-8)"></path>
                        <path d="M70.5,64.5 L123.5,34.5" id="Path-154-Copy-2" stroke="#003C78" fill-rule="nonzero" mask="url(#mask-8)"></path>
                        <path d="M97.5,80.5 L150.5,50.5" id="Path-154-Copy-3" stroke="#003C78" fill-rule="nonzero" mask="url(#mask-8)"></path>
                        <path d="M121.5,97.5 L174.5,67.5" id="Path-154-Copy-4" stroke="#003C78" fill-rule="nonzero" mask="url(#mask-8)"></path>
                        <path d="M5.04812511,36.3273227 C6.99303512,36.3273227 8.34753564,34.0398366 8.34753564,30.8671959 C8.34753564,27.6945553 6.86621043,24.6789418 4.92130043,24.6789418 C2.97639043,24.6789418 1.30439348,27.6945553 1.30439348,30.8671959 C1.30439348,34.0398366 3.10321511,36.3273227 5.04812511,36.3273227 Z" id="Oval-16" fill="#414B5E" fill-rule="nonzero" transform="translate(4.825965, 30.503132) rotate(-14.000000) translate(-4.825965, -30.503132) "></path>
                        <g id="Group-63" transform="translate(47.000000, 17.000000)">
                            <path d="M38.2712411,23.0820477 C38.2712411,28.0631543 38.3846355,27.7353414 31.5191201,32.5834673 C24.6536048,37.4315933 44.5768033,47.9978362 48.8734202,46.3958826 C53.170037,44.7939291 51.6126074,34.1101683 65.0312881,37.4748893 C78.4499688,40.8396103 71.4102384,29.1682342 57.6276648,23.0820477 C43.8450912,16.9958611 38.2712411,18.100941 38.2712411,23.0820477 Z" id="Path-159" fill="#5A290B" fill-rule="nonzero"></path>
                            <g id="Group-54">
                                <g id="Path-162" transform="translate(41.000000, 22.000000)">
                                    <mask id="mask-10" fill="white">
                                        <use xlink:href="#path-9"></use>
                                    </mask>
                                    <use id="Mask" fill="#01977D" fill-rule="nonzero" xlink:href="#path-9"></use>
                                    <path d="M5.20976382,3.93326089 C5.98568879,1.66867522 6.37365127,0.0902362885 6.37365127,-0.802055895 C6.37365127,-1.69434808 7.29409334,-1.06170226 9.13497748,1.09588155 L7.38680496,5.98798729 L5.20976382,3.93326089 Z" fill-opacity="0.132359601" fill="#181818" fill-rule="nonzero" mask="url(#mask-10)"></path>
                                </g>
                                <path d="M32.8363831,35.0142416 C32.8363831,35.8625236 44.3364298,43.9544168 45.5959361,41.8342391 C46.8554424,39.7140613 56.6120034,31.2599743 62.2969162,32.8215724 C67.981829,34.3831704 68.4911146,32.4989194 62.2969162,29.3947029 C56.1027179,26.2904864 56.1522747,19.6371295 52.4094176,19.6371295 C48.6665605,19.6371295 49.0158905,23.1708432 47.0515035,26.9477805 C45.0871164,30.7247179 43.9547292,30.698495 42.8992534,28.2627816 C41.8437776,25.8270682 37.7589492,26.9653963 37.7589492,31.512812 C37.7589492,36.0602276 32.8363831,34.1659596 32.8363831,35.0142416 Z" id="Path-160" fill="url(#linearGradient-11)" fill-rule="nonzero"></path>
                                <path d="M2.63298634,7.56675884 C4.1508457,10.8386411 2.86250294,11.0935727 0.780822571,12.6775109 C-1.3008578,14.2614492 0.663522775,21.7537781 10.5366466,20.4099135 C20.4097704,19.0660488 17.2809938,15.2272175 14.9870008,12.1019599 C12.6930078,8.97670238 20.9479409,12.8380887 25.8298744,10.3845808 C30.7118078,7.93107286 19.9839721,0.198767672 7.84930826,0.198767672 C-4.2853556,0.198767672 1.11512699,4.29487654 2.63298634,7.56675884 Z" id="Path-157" fill="#5A290B" fill-rule="nonzero"></path>
                            </g>
                        </g>
                    </g>
                    <g id="Chimney" transform="translate(98.000000, 215.000000)">
                        <path d="M199.233496,205.575654 C66.4111652,132.867005 0,94.1751206 0,89.5 C0,82.4873192 7.91644764,64.5490078 23.8156431,56.1830026 C34.4151067,50.6056658 45.062678,50.6056658 55.758357,56.1830026 L291.157817,178.606171 L199.233496,205.575654 Z" id="Path-161" fill="url(#linearGradient-12)" fill-rule="nonzero"></path>
                        <path d="M291,185 C291,186 291.333333,187.666667 292,190 C293,193.5 287.5,205.5 271.5,212.5 C260.833333,217.166667 248,219.166667 233,218.5 L238,204 L291,185 Z" id="Path-103" fill-opacity="0.254330842" fill="#000000" fill-rule="nonzero"></path>
                        <g id="Path-175" transform="translate(186.000000, 23.000000)">
                            <mask id="mask-14" fill="white">
                                <use xlink:href="#path-13"></use>
                            </mask>
                            <use id="Mask" fill="#8B8AFE" fill-rule="nonzero" xlink:href="#path-13"></use>
                            <path d="M93,7.5 C86.9296937,15.51659 79.4296937,21.1832566 70.5,24.5 C53,31 23.6266356,21.0708271 23.5,22.5 C20,62 18.1452005,91.3864297 20,107.5 C20.9662114,115.893961 24.9210665,126.931349 31.8645655,140.612163 C36.7690954,150.275585 47.4809069,167.738197 64,193 L-3,174 C0.333333333,129.666667 2,107.5 2,107.5 C2,107.5 5.5,69.1666667 12.5,-7.5 L93,-2 L93,7.5 Z" fill-opacity="0.0552819293" fill="#3D3A3A" fill-rule="nonzero" opacity="0.762890625" mask="url(#mask-14)"></path>
                        </g>
                        <ellipse id="Oval-21" fill="#AEADFD" fill-rule="nonzero" cx="238.5" cy="23.5" rx="39.5" ry="23.5"></ellipse>
                        <path d="M238,144 C263.957383,144 285,131.463973 285,116 C285,100.536027 263.957383,88 238,88 C223.624943,88 219.124943,104.833333 224.5,138.5 L220.5,141.5 C227.973731,143.166667 233.807064,144 238,144 Z" id="Oval-21-Copy-3" fill="#AEADFD" fill-rule="nonzero"></path>
                        <path d="M238.5,140 C261.972102,140 281,128.807119 281,115 C281,101.192881 261.972102,90 238.5,90 C234.30475,90 227.356162,88.1256593 226.423439,91.0237095 C224.5,97 221.660129,125 221.660129,137.960705 C226.823738,139.272889 232.517517,140 238.5,140 Z" id="Oval-21-Copy-3" fill="url(#linearGradient-15)" fill-rule="nonzero"></path>
                        <g id="Group-49" transform="translate(222.000000, 94.000000)">
                            <mask id="mask-17" fill="white">
                                <use xlink:href="#path-16"></use>
                            </mask>
                            <g id="Mask" fill-rule="nonzero"></g>
                            <g mask="url(#mask-17)" fill-rule="nonzero">
                                <g transform="translate(-15.000000, 0.000000)">
                                    <path d="M26.5,0.110726644 C25.375,0.885813149 25,2.43598616 25,2.43598616 C25,2.43598616 25.75,6.56978085 27.25,14.8373702 L31,16 L29.5,3.98615917 C28.25,0.885813149 27.25,-0.405997693 26.5,0.110726644 Z" id="Path-210" fill="#67677A"></path>
                                    <path d="M26,0.380170138 C26,1.87973013 26.8814815,6.62833676 28.6444444,14.62599 L37.7111111,18 L43,9.19008507 C31.6666667,1.81724846 26,-1.11938985 26,0.380170138 Z" id="Path-209" fill="url(#linearGradient-18)"></path>
                                    <path d="M42,19 L37.5,16 C44.5233918,6.66666667 48.5497076,2 49.5789474,2 C51.122807,2 58.8421053,7.40909091 60,11.2727273 C57.4269006,11.7878788 51.4269006,14.3636364 42,19 Z" id="Path-201" fill="url(#linearGradient-19)"></path>
                                    <path d="M41,19.5 C55.0413297,12.2810219 63.4324648,9.18248175 66.1734052,10.2043796 C68.9143456,11.2262774 69.6618748,15.5693431 68.4159928,23.2335766 L43,23.5 L41,19.5 Z" id="Path-202" fill="url(#linearGradient-20)"></path>
                                    <path d="M16,21 L16,27.2857143 C18.25,30.4285714 20,32 21.25,32 C22.5,32 27.875,32 37.375,32 L43,29 L43,21" id="Path-206" fill="#67677A"></path>
                                    <path d="M43.2857143,22.7088608 L41,26.5063291 C49.6349206,32.835443 54.2063492,36 54.7142857,36 C55.4761905,36 63.8571429,34.1012658 66.9047619,29.9240506 C69.952381,25.7468354 69.1904762,21.9493671 67.6666667,21.1898734 C66.6507937,20.6835443 58.5238095,21.1898734 43.2857143,22.7088608 Z" id="Path-205" fill="url(#linearGradient-21)"></path>
                                    <path d="M32.5409386,31.5303954 L38.3194583,27 C49.6196746,29.768575 55.7834289,31.7820841 56.8107213,33.0405272 C58.3516599,34.928192 50.2617323,44.3665158 40.6308662,43.9889829 C34.2102887,43.7372942 31,43.1080726 31,42.1013181 L32.5409386,31.5303954 Z" id="Path-204" fill="url(#linearGradient-22)"></path>
                                    <path d="M21.5,31 C21.5,31.3886613 12.4570326,39.3907095 14,42.5 C15.5429674,45.6092905 34.582113,42.4452453 34.9678548,39.6598393 C35.2250161,37.8029019 33.9392099,33.9162888 31.1104365,28 C24.7034788,29.7408925 21.5,30.7408925 21.5,31 Z" id="Path-203" fill="url(#linearGradient-23)"></path>
                                    <path d="M27,14.5 L25.5,6.5 C20.3776742,7.07660034 17.5443409,7.57660034 17,8 C15.7293086,8.98837028 16.4058674,12 16,12 C15.3333333,12 16.5,13.1666667 19.5,15.5" id="Path-211" fill="#828396"></path>
                                    <ellipse id="Oval-23" fill="#A5A5B6" cx="29.5" cy="21.5" rx="13.5" ry="7.5"></ellipse>
                                    <path d="M-5.68434189e-14,35.4333333 C-5.30547828e-14,36.6555556 0.259259259,37.2666667 0.777777778,37.2666667 C1.55555556,37.2666667 5.83333333,38 6.61111111,38 C7.12962963,38 11.9259259,34.8222222 21,28.4666667 L21,27 L5.44444444,34.3333333 L-5.68434189e-14,35.4333333 Z" id="Path-208" fill="#67677A"></path>
                                    <path d="M0.130009714,35.4615385 C5.00378092,31.6153846 15.8760398,27 17.0007562,27 C17.7505671,27 18.7503151,27 20,27 C11.5021425,33.6666667 6.75333981,37 5.75359187,37 C4.25396996,37 -0.87744699,36.4950879 0.130009714,35.4615385 Z" id="Path-207" fill="url(#linearGradient-24)"></path>
                                </g>
                            </g>
                        </g>
                        <ellipse id="Oval-22" fill="url(#linearGradient-25)" fill-rule="nonzero" cx="239" cy="23" rx="29" ry="16"></ellipse>
                        <path d="M238,105 C262.300529,105 282,93.1355459 282,78.5 C282,63.8644541 262.300529,52 238,52 C231.413628,52 225.165257,52.8715833 219.555511,54.4336924 C204.468008,58.6350106 204.517481,98.4083918 219.662418,102.595972 C225.244598,104.139447 231.455437,105 238,105 Z" id="Oval-21-Copy-4" fill="#8B8AFE" fill-rule="nonzero"></path>
                        <polygon id="Path-212" fill="#AEADFD" fill-rule="nonzero" points="220.5 141.5 222 103 224.5 103 224.5 138.5"></polygon>
                    </g>
                    <polygon id="Path-163" fill="#4648E8" fill-rule="nonzero" points="235.5 524 153 479.126325 153 392.126325 235.5 438"></polygon>
                    <polygon id="Path-141" fill="#7072FD" fill-rule="nonzero" points="235.5 438 235.5 524 338.5 459.148162 339.5 374.126325"></polygon>
                    <path d="M154,399 L236,443.5" id="Path-168" stroke-opacity="0.233865489" stroke="#EAE4E4" fill-rule="nonzero"></path>
                    <path d="M152.5,474.5 L236,519.5" id="Path-168-Copy" stroke-opacity="0.233865489" stroke="#EAE4E4" fill-rule="nonzero"></path>
                    <polygon id="Path-172" fill-opacity="0.0795969203" fill="#000000" fill-rule="nonzero" points="153 401.5 235.5 439.5 339.5 376 339.5 369.5 235.5 431 153 389"></polygon>
                    <path d="M151.5,388.5 C151.5,388.5 151.5,389.833333 151.5,392.5 L235.5,438 L235.5,433 C179.5,403.333333 151.5,388.5 151.5,388.5 Z" id="Path-169" fill="#7072FD" fill-rule="nonzero"></path>
                    <polygon id="Path-170" fill="#8B8AFE" fill-rule="nonzero" points="235.5 438 235.5 433 341 369 341 373.5"></polygon>
                    <polygon id="Path-171" fill="#8B8AFE" fill-rule="nonzero" points="235.5 434 151.5 389 255 330 341 369"></polygon>
                    <path d="M251,514 L269.5,526 C275.148927,523.964136 279.815594,522.130803 283.5,520.5 C287.184406,518.869197 292.684406,516.202531 300,512.5 L275.5,499 L251,514 Z" id="Path-174" fill="#585859" fill-rule="nonzero"></path>
                    <g id="Entrance" transform="translate(251.000000, 468.000000)">
                        <mask id="mask-27" fill="white">
                            <use xlink:href="#path-26"></use>
                        </mask>
                        <use id="Mask" fill="#AEADFD" fill-rule="nonzero" xlink:href="#path-26"></use>
                        <path d="M-1,17.5 L25.5,2" id="Path-165" stroke-opacity="0.179093071" stroke="#828292" fill-rule="nonzero" mask="url(#mask-27)"></path>
                        <path d="M-1,20.5 L25.5,5" id="Path-165-Copy" stroke-opacity="0.179093071" stroke="#828292" fill-rule="nonzero" mask="url(#mask-27)"></path>
                        <path d="M-1,23.5 L25.5,8" id="Path-165-Copy-2" stroke-opacity="0.179093071" stroke="#828292" fill-rule="nonzero" mask="url(#mask-27)"></path>
                        <path d="M-1,26.5 L25.5,11" id="Path-165-Copy-3" stroke-opacity="0.179093071" stroke="#828292" fill-rule="nonzero" mask="url(#mask-27)"></path>
                        <path d="M-1,29.5 L25.5,14" id="Path-165-Copy-4" stroke-opacity="0.179093071" stroke="#828292" fill-rule="nonzero" mask="url(#mask-27)"></path>
                        <path d="M-1,32.5 L25.5,17" id="Path-165-Copy-5" stroke-opacity="0.179093071" stroke="#828292" fill-rule="nonzero" mask="url(#mask-27)"></path>
                        <path d="M-1,35.5 L25.5,20" id="Path-165-Copy-6" stroke-opacity="0.179093071" stroke="#828292" fill-rule="nonzero" mask="url(#mask-27)"></path>
                        <path d="M-1,38.5 L25.5,23" id="Path-165-Copy-7" stroke-opacity="0.179093071" stroke="#828292" fill-rule="nonzero" mask="url(#mask-27)"></path>
                        <path d="M-1,41.5 L25.5,25.5" id="Path-165-Copy-8" stroke-opacity="0.179093071" stroke="#828292" fill-rule="nonzero" mask="url(#mask-27)"></path>
                        <path d="M-1,44.5 L25.5,28.5" id="Path-165-Copy-9" stroke-opacity="0.179093071" stroke="#828292" fill-rule="nonzero" mask="url(#mask-27)"></path>
                    </g>
                    <g id="Factory-Window" transform="translate(160.000000, 407.000000)">
                        <g id="Path-167">
                            <mask id="mask-29" fill="white">
                                <use xlink:href="#path-28"></use>
                            </mask>
                            <use id="Mask" fill="#8B8AFE" fill-rule="nonzero" xlink:href="#path-28"></use>
                            <polygon fill="#002A54" fill-rule="nonzero" mask="url(#mask-29)" points="11.5 6 2 1 2 65.5 11.5 70.5"></polygon>
                            <polygon id="Path-166" fill="#8B8AFE" fill-rule="nonzero" mask="url(#mask-29)" points="2 65.5 0 66.5 11.5 73 12.5 70.5"></polygon>
                        </g>
                        <g id="Path-167-Copy-3" transform="translate(49.000000, 27.000000)">
                            <mask id="mask-31" fill="white">
                                <use xlink:href="#path-30"></use>
                            </mask>
                            <use id="Mask" fill="#8B8AFE" fill-rule="nonzero" xlink:href="#path-30"></use>
                            <polygon id="Path-167" fill="#002A54" fill-rule="nonzero" mask="url(#mask-31)" points="11.5 6 2 1 2 65.5 11.5 70.5"></polygon>
                            <polygon id="Path-166" fill="#8B8AFE" fill-rule="nonzero" mask="url(#mask-31)" points="2 65.5 0 66.5 11.5 73 12.5 70.5"></polygon>
                        </g>
                        <g id="Path-167-Copy" transform="translate(16.000000, 9.000000)">
                            <mask id="mask-33" fill="white">
                                <use xlink:href="#path-32"></use>
                            </mask>
                            <use id="Mask" fill="#8B8AFE" fill-rule="nonzero" xlink:href="#path-32"></use>
                            <polygon id="Path-167" fill="#002A54" fill-rule="nonzero" mask="url(#mask-33)" points="11.5 6 2 1 2 65.5 11.5 70.5"></polygon>
                            <polygon id="Path-166" fill="#8B8AFE" fill-rule="nonzero" mask="url(#mask-33)" points="2 65.5 0 66.5 11.5 73 12.5 70.5"></polygon>
                        </g>
                        <g id="Path-167-Copy-2" transform="translate(32.000000, 18.000000)">
                            <mask id="mask-35" fill="white">
                                <use xlink:href="#path-34"></use>
                            </mask>
                            <use id="Mask" fill="#8B8AFE" fill-rule="nonzero" xlink:href="#path-34"></use>
                            <polygon id="Path-167" fill="#002A54" fill-rule="nonzero" mask="url(#mask-35)" points="11.5 6 2 1 2 65.5 11.5 70.5"></polygon>
                            <polygon id="Path-166" fill="#8B8AFE" fill-rule="nonzero" mask="url(#mask-35)" points="2 65.5 0 66.5 11.5 73 12.5 70.5"></polygon>
                        </g>
                    </g>
                    <g id="Factory-Pipe" transform="translate(164.000000, 465.000000)" fill="#010911" fill-rule="nonzero">
                        <ellipse id="Oval-24-Copy" stroke="#D0D0D2" transform="translate(148.955116, 5.404841) rotate(-330.000000) translate(-148.955116, -5.404841) " cx="148.955116" cy="5.40484124" rx="2.67767102" ry="3.90634387"></ellipse>
                        <ellipse id="Oval-24" stroke="#8A899D" transform="translate(5.064886, 18.426155) rotate(-33.000000) translate(-5.064886, -18.426155) " cx="5.06488603" cy="18.4261546" rx="2.67767102" ry="3.90634387"></ellipse>
                    </g>
                    <g id="Plant" transform="translate(325.000000, 417.000000)">
                        <g id="Group-59">
                            <path d="M14.5,45.5 L9,45 C9,41 8.33333333,39 7,39 C5,39 2.5,34 5,29 C7.5,24 10,23.5 8,20 C6,16.5 5,5 9,5 C13,5 11.5,7.5 11.5,8.5 C11.5,9.5 13,28.5 13,30 C13,31 14.5,36.1666667 17.5,45.5 L14.5,45.5 Z" id="Path-225" fill-opacity="0.234148551" fill="#000000" fill-rule="nonzero"></path>
                            <g id="Group-60">
                                <mask id="mask-37" fill="white">
                                    <use xlink:href="#path-36"></use>
                                </mask>
                                <g id="Mask" fill-rule="nonzero"></g>
                                <g mask="url(#mask-37)" id="Rectangle-5">
                                    <g transform="translate(5.000000, 5.000000)">
                                        <g>
                                            <mask id="mask-39" fill="white">
                                                <use xlink:href="#path-38"></use>
                                            </mask>
                                            <use id="Mask" fill="#23B893" fill-rule="nonzero" opacity="0" xlink:href="#path-38"></use>
                                            <rect fill="url(#linearGradient-4)" fill-rule="nonzero" opacity="0.547935268" mask="url(#mask-39)" x="6.4" y="34.6233766" width="15.6" height="9.66233766"></rect>
                                        </g>
                                    </g>
                                </g>
                                <path d="M15.0113748,46.8701299 C13.6704583,41.7705628 11.9333333,38.8181818 9.8,38.012987 C6.6,36.8051948 4.2,32.7792208 5.4,29.1558442 C6.6,25.5324675 11.8,27.9480519 12.2,25.1298701 C12.6,22.3116883 7.8,20.2987013 8.2,14.6623377 C8.6,9.02597403 10.6,5 16.2,5 C21.8,5 18.6,13.0519481 21.8,14.6623377 C25,16.2727273 28.6,11.4415584 31.4,15.0649351 C35.1877644,19.9665412 20.6,26.7402597 20.6,31.1688312 C20.6,35.5974026 25.4,33.987013 25.4,38.012987 C25.4,42.038961 18,44.4545455 18,47.2727273 C18,49.1515152 17.0037916,49.017316 15.0113748,46.8701299 Z" id="Path-230" fill="#23B893" fill-rule="nonzero" mask="url(#mask-37)"></path>
                                <path d="M15.8,39.2950113 C13.7326466,33.8556663 11.6907864,31.1688312 9.8,31.1688312 C9.5790861,31.1688312 9.4,30.9885822 9.4,30.7662338 C9.4,30.5438854 9.5790861,30.3636364 9.8,30.3636364 C11.8895055,30.3636364 13.8603756,32.6426818 15.8,37.1550707 L15.8,31.9813835 C15.7999225,31.9768198 15.7999221,31.9722439 15.8,31.9676558 L15.8,17.4805195 C15.8,15.4261998 15.0307995,13.361679 13.48,11.2805195 C13.3474517,11.1026408 13.3832689,10.8502922 13.56,10.7168831 C13.7367311,10.5834741 13.9874517,10.6195239 14.12,10.7974026 C15.7692005,13.0106154 16.6,15.2404669 16.6,17.4805195 L16.6,28.5786162 C17.7648484,25.0754149 19.8328719,22.4617434 22.8015444,20.7543437 C22.9933514,20.644028 23.2376933,20.7110994 23.3472973,20.9041519 C23.4569012,21.0972043 23.3902626,21.3431328 23.1984556,21.4534485 C19.5838679,23.5323394 17.3862002,27.0377281 16.6,32.0057505 L16.6,39.2113795 C16.6001444,39.2176084 16.6001437,39.2238259 16.6,39.2300273 L16.6,40.7921956 C17.6232558,37.8844547 18.9383376,36.4025974 20.6,36.4025974 C20.8209139,36.4025974 21,36.5828464 21,36.8051948 C21,37.0275432 20.8209139,37.2077922 20.6,37.2077922 C18.997385,37.2077922 17.6262633,39.3319684 16.6,43.6962103 L16.6,47.8927627 C16.6,48.1151111 16.4209139,48.2953601 16.2,48.2953601 C15.9790861,48.2953601 15.8,48.1151111 15.8,47.8927627 L15.8,43.6582126 C15.7998801,43.6525506 15.7998795,43.6468709 15.8,43.6411761 L15.8,39.2950113 Z" id="Combined-Shape" fill="#039773" fill-rule="nonzero" mask="url(#mask-37)"></path>
                            </g>
                        </g>
                    </g>
                    <g id="Factory-Smoke" transform="translate(156.000000, 0.000000)" fill="#F8F9FB" fill-rule="nonzero">
                        <path d="M162.5,241.5 C147.492295,218.941383 142,206.246007 157,183.623003 C172,161 169.788241,149.528866 152.5,141 C115,122.5 81,0 6,0 C-58.1511663,0 473.85628,0.5 517,0 C452,11 393.00411,197.714108 360,204.5 C306.5,215.5 248.5,143.5 237.5,189.5 C226.5,235.5 199.5,208 194.5,218.5 C189.5,229 205.5,236 197.5,244.5 C189.5,253 167.742295,249.379881 162.5,241.5 Z" id="Path-173"></path>
                    </g>
                </g>
            </g>
        </g>
    </g>
</svg>